<svg width="174" height="174" viewBox="0 0 174 174" fill="none" xmlns="http://www.w3.org/2000/svg">
<path d="M160.126 105.455L139.171 111.07L123.76 102.173V71.8265L139.171 62.9295L160.126 68.5449C162.901 69.291 165.752 67.6435 166.498 64.869C167.24 62.0932 165.593 59.239 162.818 58.4969L151.913 55.5737L160.515 50.6062C163.002 49.1711 163.855 45.9904 162.419 43.5C160.984 41.0136 157.799 40.16 155.313 41.5963L146.71 46.5626L149.631 35.6584C150.377 32.8839 148.729 30.0284 145.955 29.2863C143.176 28.5416 140.326 30.189 139.583 32.9635L133.969 53.9183L118.559 62.8153L92.2782 47.6418V29.8518L107.619 14.5111C109.651 12.4786 109.651 9.18375 107.619 7.15132C105.587 5.12288 102.296 5.12288 100.263 7.15132L92.2782 15.1363V5.20253C92.2782 2.33112 89.9484 0 87.0757 0C84.2043 0 81.8731 2.33112 81.8731 5.20253V15.1363L73.8895 7.15132C71.857 5.12288 68.5661 5.12288 66.5337 7.15132C64.5013 9.18375 64.5013 12.4786 66.5337 14.5111L81.8731 29.8518V47.6418L55.5937 62.8153L40.1839 53.9183L34.5685 32.9635C33.8264 30.189 30.9762 28.5416 28.1977 29.2863C25.4232 30.0284 23.7758 32.8839 24.5205 35.6584L27.4411 46.5626L18.8401 41.5963C16.3537 40.16 13.1689 41.0136 11.7339 43.5C10.2975 45.9904 11.1511 49.1711 13.6376 50.6062L22.2385 55.5737L11.3343 58.4969C8.55981 59.239 6.91237 62.0932 7.65445 64.869C8.40051 67.6435 11.2507 69.291 14.0265 68.5449L34.9813 62.9295L50.3911 71.8265V102.173L34.9813 111.07L14.0265 105.455C11.2507 104.709 8.39653 106.356 7.65445 109.131C6.91237 111.907 8.55981 114.761 11.3343 115.503L22.2385 118.426L13.6376 123.394C11.1511 124.829 10.2975 128.01 11.7339 130.5C13.1689 132.986 16.3537 133.84 18.8401 132.404L27.4411 127.437L24.5205 138.342C23.7758 141.116 25.4232 143.972 28.1977 144.714C30.9722 145.458 33.8264 143.811 34.5685 141.036L40.1839 120.082L55.5937 111.185L81.8731 126.358V144.148L66.5337 159.489C64.5013 161.521 64.5013 164.816 66.5337 166.849C68.5661 168.877 71.857 168.877 73.8895 166.849L81.8731 158.864V168.797C81.8731 171.669 84.2043 174 87.0757 174C89.9484 174 92.2782 171.669 92.2782 168.797V158.864L100.263 166.849C102.296 168.877 105.587 168.877 107.619 166.849C109.651 164.816 109.651 161.521 107.619 159.489L92.2782 144.148V126.358L118.559 111.185L133.969 120.082L139.583 141.036C140.326 143.811 143.18 145.458 145.955 144.714C148.729 143.972 150.377 141.116 149.631 138.342L146.71 127.437L155.313 132.404C157.799 133.84 160.984 132.986 162.419 130.5C163.855 128.01 163.002 124.829 160.515 123.394L151.913 118.426L162.818 115.503C165.593 114.761 167.24 111.907 166.498 109.131C165.752 106.356 162.901 104.709 160.126 105.455V105.455ZM60.7962 77.8335L76.6706 87L60.7962 96.1665V77.8335ZM81.8731 114.344L65.9987 105.178L81.8731 96.0112V114.344ZM81.8731 77.9888L65.9987 68.8223L81.8731 59.6559V77.9888ZM92.2782 59.6559L108.154 68.8223L92.2782 77.9888V59.6559ZM92.2782 114.344V96.0112L108.154 105.178L92.2782 114.344ZM113.356 96.1665L97.4807 87L113.356 77.8335V96.1665Z" fill="#7ED8F6"/>
<path d="M121.634 38.1329C121.634 41.5552 118.859 44.3297 115.437 44.3297C112.013 44.3297 109.24 41.5552 109.24 38.1329C109.24 34.7105 112.013 31.936 115.437 31.936C118.859 31.936 121.634 34.7105 121.634 38.1329Z" fill="#5ECEF4"/>
<path d="M40.0365 87C40.0365 90.4223 37.262 93.1968 33.8397 93.1968C30.4173 93.1968 27.6428 90.4223 27.6428 87C27.6428 83.5777 30.4173 80.8032 33.8397 80.8032C37.262 80.8032 40.0365 83.5777 40.0365 87Z" fill="#7ED8F6"/>
<path d="M146.51 87C146.51 90.4223 143.735 93.1968 140.313 93.1968C136.891 93.1968 134.116 90.4223 134.116 87C134.116 83.5777 136.891 80.8032 140.313 80.8032C143.735 80.8032 146.51 83.5777 146.51 87Z" fill="#5ECEF4"/>
<path d="M65.8607 38.1329C65.8607 41.5552 63.0862 44.3297 59.6639 44.3297C56.2415 44.3297 53.467 41.5552 53.467 38.1329C53.467 34.7105 56.2415 31.936 59.6639 31.936C63.0862 31.936 65.8607 34.7105 65.8607 38.1329Z" fill="#7ED8F6"/>
<path d="M121.16 135.867C121.16 139.289 118.385 142.064 114.963 142.064C111.54 142.064 108.766 139.289 108.766 135.867C108.766 132.445 111.54 129.67 114.963 129.67C118.385 129.67 121.16 132.445 121.16 135.867Z" fill="#5ECEF4"/>
<path d="M65.3867 135.867C65.3867 139.289 62.6122 142.064 59.1899 142.064C55.7675 142.064 52.993 139.289 52.993 135.867C52.993 132.445 55.7675 129.67 59.1899 129.67C62.6122 129.67 65.3867 132.445 65.3867 135.867Z" fill="#7ED8F6"/>
<path d="M160.126 105.455L139.171 111.07L123.76 102.173V71.8265L139.171 62.9295L160.126 68.5449C162.901 69.291 165.752 67.6435 166.498 64.869C167.24 62.0932 165.593 59.239 162.818 58.4969L151.913 55.5737L160.515 50.6062C163.002 49.1711 163.855 45.9904 162.419 43.5C160.984 41.0136 157.799 40.16 155.313 41.5963L146.71 46.5626L149.631 35.6584C150.377 32.8839 148.729 30.0284 145.955 29.2863C143.176 28.5416 140.326 30.189 139.583 32.9635L133.969 53.9183L118.559 62.8153L92.2782 47.6418V29.8518L107.619 14.5111C109.651 12.4786 109.651 9.18375 107.619 7.15132C105.587 5.12288 102.296 5.12288 100.263 7.15132L92.2782 15.1363V5.20253C92.2782 2.33112 89.9484 0 87.0757 0V174C89.9484 174 92.2782 171.669 92.2782 168.797V158.864L100.263 166.849C102.296 168.877 105.587 168.877 107.619 166.849C109.651 164.816 109.651 161.521 107.619 159.489L92.2782 144.148V126.358L118.559 111.185L133.969 120.082L139.583 141.036C140.326 143.811 143.18 145.458 145.955 144.714C148.729 143.972 150.377 141.116 149.631 138.342L146.71 127.437L155.313 132.404C157.799 133.84 160.984 132.986 162.419 130.5C163.855 128.01 163.002 124.829 160.515 123.394L151.913 118.426L162.818 115.503C165.593 114.761 167.24 111.907 166.498 109.131C165.752 106.356 162.901 104.709 160.126 105.455V105.455ZM92.2782 59.6559L108.154 68.8223L92.2782 77.9888V59.6559ZM92.2782 114.344V96.0112L108.154 105.178L92.2782 114.344ZM113.356 96.1665L97.4807 87L113.356 77.8335V96.1665Z" fill="#5ECEF4"/>
</svg>
