<svg width="60" height="40" viewBox="0 0 60 40" fill="none" xmlns="http://www.w3.org/2000/svg">
<path d="M50.003 17C49.888 8.301 42.81 1 34.084 1C28.525 1 23.305 4.005 20.423 8.336C19.157 7.493 17.636 7 16 7C11.582 7 8 10.582 8 15C8 15.153 8.014 15.302 8.023 15.454C8.013 15.636 8 15.82 8 16C4.012 17.912 1 22.457 1 27.155C1 33.67 6.33 39 12.845 39H37.352C37.49 39 37.624 38.984 37.76 38.979C37.897 38.984 38.031 39 38.169 39H47.972C54.037 39 59 34.037 59 27.972C59 22.601 55.106 17.961 50.003 17Z" fill="#7FABDA" stroke="#7383BF" stroke-width="2" stroke-miterlimit="10" stroke-linecap="round"/>
</svg>
